<?xml version="1.0" encoding="UTF-8" standalone="no"?>
<!DOCTYPE svg PUBLIC "-//W3C//DTD SVG 1.1//EN" "http://www.w3.org/Graphics/SVG/1.1/DTD/svg11.dtd">
<svg width="100%" height="100%" viewBox="0 0 82 103" version="1.1" xmlns="http://www.w3.org/2000/svg" xmlns:xlink="http://www.w3.org/1999/xlink" xml:space="preserve" xmlns:serif="http://www.serif.com/" style="fill-rule:evenodd;clip-rule:evenodd;stroke-linejoin:round;stroke-miterlimit:2;">
    <g transform="matrix(1,0,0,1,-902.649043,-37.681049)">
        <path d="M966.467,51.552C963.515,56.179 963.106,61.307 961.386,65.987C958.097,74.93 952.287,80.477 942.563,81.615C939.775,81.941 936.945,82.566 934.328,83.563C926.272,86.633 921.588,94.387 922.336,102.926C923.099,111.626 929.263,118.542 937.837,120.318C945.757,121.957 954.442,117.823 958.545,110.46C962.607,103.168 961.257,93.99 955.309,87.848C953.957,86.452 951.901,85.657 951.351,83.414C954.264,80.069 957.026,80.119 960.107,83.357C968.246,91.906 968.257,102.307 966.744,112.9C966.169,116.928 964.407,120.788 962.853,125.798C969.585,119.829 972.742,113.107 973.695,105.37C975.022,94.585 971.638,85.256 963.852,77.715C960.98,74.933 961.129,72.812 964.276,70.079C973.42,76.062 978.196,84.719 980.046,95.037C982.803,110.414 975.04,126.825 961.626,134.827C947.912,143.008 929.788,142.05 917.504,132.036C906.196,122.819 901.153,110.601 903.034,96.159C904.981,81.213 913.557,71.004 927.448,65.153C933.589,62.567 939.284,62.094 944.543,67.935C938.452,69.656 932.753,72.03 929.308,78.122C935.14,75.282 941.805,76.431 947.605,73.639C951.616,71.708 953.982,68.367 955.292,64.24C956.551,60.276 957.464,56.19 958.908,52.297C962.111,43.661 968.586,39.003 977.608,37.809C980.408,37.438 982.91,37.679 983.753,41.24C986.313,52.058 975.609,65.28 964.234,64.905C963.152,61.384 964.71,59.402 967.929,58.08C973.55,55.772 976.32,51.324 977.232,45.079C972.122,44.808 969.083,47.47 966.467,51.552M932.417,125.457C922.175,121.256 916.695,113.427 915.751,102.601C914.935,93.233 916.054,84.108 921.503,75.975C911.757,84.113 907.429,94.544 909.728,106.924C912.13,119.856 919.89,128.761 932.684,132.689C941.952,135.535 949.268,132.469 954.612,123.65C947.551,127.081 940.514,128.257 932.417,125.457Z" style="fill:rgb(85,107,47);fill-rule:nonzero;"/>
        <path d="M955.804,56.871C953.628,66.323 951.773,67.166 943.612,62.622C937.523,59.232 934.729,53.917 934.701,47.025C934.687,43.631 936.36,42.308 939.691,42.411C947.949,42.667 954.397,48.197 955.804,56.871M947.391,57.517C949.162,58.217 950.035,57.659 949.425,55.781C948.273,52.234 945.785,50.253 941.475,49.576C942.204,53.356 944.073,55.586 947.391,57.517Z" style="fill:rgb(85,107,47);fill-rule:nonzero;"/>
    </g>
</svg>
