<?xml version="1.0" encoding="UTF-8" standalone="no"?>
<!DOCTYPE svg PUBLIC "-//W3C//DTD SVG 1.1//EN" "http://www.w3.org/Graphics/SVG/1.1/DTD/svg11.dtd">
<svg width="100%" height="100%" viewBox="0 0 193 244" version="1.1" xmlns="http://www.w3.org/2000/svg" xmlns:xlink="http://www.w3.org/1999/xlink" xml:space="preserve" xmlns:serif="http://www.serif.com/" style="fill-rule:evenodd;clip-rule:evenodd;stroke-linejoin:round;stroke-miterlimit:2;">
    <g transform="matrix(1,0,0,1,-416.92218,-78.62609)">
        <path d="M495.476,320.927C454.868,312.979 426.837,285.897 418.76,247.132C409.382,202.115 436.759,155.89 481.118,141.859C483.022,141.257 484.972,140.796 486.867,140.165C493.885,137.826 500.258,137.728 506.197,143.399C509.181,146.248 513.418,147.784 518.553,150.763C496.227,150.988 483.068,163.009 472.548,178.975C472.784,179.371 473.02,179.767 473.256,180.163C475.47,178.871 477.66,177.534 479.903,176.295C489.12,171.206 499.129,168.946 509.524,168.145C528.44,166.687 538.753,155.431 543.713,138.125C545.822,130.769 547.621,123.322 549.815,115.992C556.672,93.079 576.85,78.185 600.223,78.636C605.642,78.741 607.763,80.513 608.744,85.758C613.449,110.917 590.178,141.208 564.641,143.14C564.18,143.175 563.698,142.941 563.251,142.838C562.318,135.121 565.155,129.996 571.814,127.273C586.065,121.445 595.364,107.81 595.083,93.127C593.941,92 592.656,92.484 591.358,92.793C574.826,96.735 565.622,107.815 561.314,123.648C559.653,129.75 558.115,135.886 556.423,141.98C549.482,166.974 532.616,180.904 506.733,182.161C485.576,183.188 462.575,200.179 461.55,229.504C461.156,240.781 467.588,255.435 474.719,260.748C474.975,260.581 475.431,260.448 475.471,260.236C477.964,247.061 486.612,239.503 498.493,234.815C502.674,233.166 506.785,231.336 510.901,229.525C512.114,228.991 513.316,228.35 514.377,227.562C517.858,224.977 521.014,221.884 519.564,217.15C518.185,212.645 513.817,211.603 509.828,211.548C503.009,211.454 496.96,213.612 493.529,220.168C492.108,222.882 490.188,224.785 487.069,225.011C482.333,225.355 479.582,220.759 481.202,215.36C483.722,206.962 494.184,199.605 504.868,198.717C525.604,196.992 538.726,208.693 539.245,229.574C539.46,238.235 539.279,246.906 539.317,255.571C539.327,258.038 538.805,261.175 541.619,262.157C544.799,263.267 546.192,260.092 547.7,258.043C563.984,235.928 558.446,205.233 535.473,190.065C532.881,188.354 530.207,186.766 526.957,184.738C531.645,182.227 535.646,179.996 539.73,177.932C541.772,176.901 543.218,178.57 544.632,179.601C559.453,190.404 567.434,205.213 570.315,223.131C574.449,248.845 569.358,272.408 554.555,293.959C564.358,287.518 572.008,279.001 577.816,268.9C596.473,236.455 589.716,195.33 561.802,170.45C553.751,163.275 553.744,163.114 561.434,153.702C568.321,157.412 573.978,162.721 579.12,168.575C611.33,205.245 609.162,261.986 573.891,295.734C552.107,316.578 525.837,324.727 495.476,320.927M538.429,291.922C542.782,286.821 547.133,281.718 549.933,274.098C543.78,276.36 538.561,277.394 533.927,274.294C530.438,271.959 528.496,272.873 526.095,275.754C519.076,284.174 509.988,288.912 498.969,288.057C483.163,286.83 470.254,279.391 461.061,266.62C443.797,242.637 443.833,216.435 452.695,189.5C455.661,180.484 460.45,172.316 465.882,164.522C438.946,181.708 425.424,214.746 432.294,245.575C437.648,269.604 451.151,287.914 472.714,299.264C497.697,312.414 519.769,312.084 538.429,291.922M489.653,263.298C490.647,273.143 501.388,278.583 511.784,271.414C520.867,265.149 527.514,247.692 524.893,235.744C517.547,241.736 508.711,244.268 500.563,248.224C494.411,251.211 490.525,255.68 489.653,263.298Z" style="fill:rgb(85,107,47);fill-rule:nonzero;"/>
        <path d="M538.161,109.016C544.602,117.64 541.083,126.115 538.742,134.541C535.99,144.45 535.482,144.707 525.723,141.9C505.289,136.023 492.314,119.373 492.734,99.568C492.893,92.083 495.301,89.516 502.659,89.734C517.537,90.175 529.762,95.75 538.161,109.016M523.117,111.405C518.608,107.118 513.525,104.168 506.969,103.899C508.359,117.352 519.384,128.667 530.369,128.031C529.571,121.999 527.812,116.478 523.117,111.405Z" style="fill:rgb(85,107,47);fill-rule:nonzero;"/>
    </g>
</svg>
